HIERARCHY
ROOT Pelvis
{
	OFFSET 0.000000 0.000000 0.000000
	CHANNELS 6 Xposition Yposition Zposition Xrotation Yrotation Zrotation
	JOINT LeftUpLeg_virtual
	{
		OFFSET 0.000000 0.000000 0.000000
		CHANNELS 3 Xrotation Yrotation Zrotation
		JOINT LeftUpLeg
		{
			OFFSET 18.735201 -5.666702 -4.541200
			CHANNELS 3 Xrotation Yrotation Zrotation
			JOINT LeftLeg
			{
				OFFSET -0.021200 -31.938179 0.493100
				CHANNELS 3 Xrotation Yrotation Zrotation
				JOINT LeftFoot
				{
					OFFSET 0.021200 -31.938179 -4.336299
					CHANNELS 3 Xrotation Yrotation Zrotation
					JOINT LeftToeBase
					{
						OFFSET 0.943001 -26.722000 15.023500
						CHANNELS 3 Xrotation Yrotation Zrotation
						End Site
						{
							OFFSET 0 0 0
						}
					}
				}
			}
		}
	}
	JOINT RightUpLeg_virtual
	{
		OFFSET 0.000000 0.000000 0.000000
		CHANNELS 3 Xrotation Yrotation Zrotation
		JOINT RightUpLeg
		{
			OFFSET -18.735201 -5.666702 -4.541200
			CHANNELS 3 Xrotation Yrotation Zrotation
			JOINT RightLeg
			{
				OFFSET 0.018946 -31.938133 0.493100
				CHANNELS 3 Xrotation Yrotation Zrotation
				JOINT RightFoot
				{
					OFFSET -0.018946 -31.938126 -4.336299
					CHANNELS 3 Xrotation Yrotation Zrotation
					JOINT RightToeBase
					{
						OFFSET -0.943001 -26.722004 15.023500
						CHANNELS 3 Xrotation Yrotation Zrotation
						End Site
						{
							OFFSET 0 0 0
						}
					}
				}
			}
		}
	}
	JOINT Hips_virtual
	{
		OFFSET 0.000000 0.000000 0.000000
		CHANNELS 3 Xrotation Yrotation Zrotation
		JOINT Hips
		{
			OFFSET -0.000000 -0.000000 -0.000000
			CHANNELS 3 Xrotation Yrotation Zrotation
			JOINT Spine
			{
				OFFSET 0.000000 10.199997 -0.299500
				CHANNELS 3 Xrotation Yrotation Zrotation
				JOINT Spine1
				{
					OFFSET 0.000000 11.900002 -1.516600
					CHANNELS 3 Xrotation Yrotation Zrotation
					JOINT Spine2
					{
						OFFSET 0.000000 13.600006 -2.842500
						CHANNELS 3 Xrotation Yrotation Zrotation
						JOINT Neck_virtual
						{
							OFFSET 0.000000 0.000000 0.000000
							CHANNELS 3 Xrotation Yrotation Zrotation
							JOINT Neck
							{
								OFFSET 0.000000 9.624100 -2.890100
								CHANNELS 3 Xrotation Yrotation Zrotation
								JOINT Head
								{
									OFFSET 0.000000 14.068802 -1.351900
									CHANNELS 3 Xrotation Yrotation Zrotation
									End Site
									{
										OFFSET 0 0 0
									}
								}
							}
						}
						JOINT LeftShoulder_virtual
						{
							OFFSET 0.000000 0.000000 0.000000
							CHANNELS 3 Xrotation Yrotation Zrotation
							JOINT LeftShoulder
							{
								OFFSET 15.263000 10.923401 -0.547700
								CHANNELS 3 Xrotation Yrotation Zrotation
								JOINT LeftArm
								{
									OFFSET 25.438599 -2.830597 -13.032500
									CHANNELS 3 Xrotation Yrotation Zrotation
									JOINT LeftForeArm
									{
										OFFSET 29.960503 0.000000 0.000000
										CHANNELS 3 Xrotation Yrotation Zrotation
										JOINT LeftHand
										{
											OFFSET 27.849251 0.000000 0.000000
											CHANNELS 3 Xrotation Yrotation Zrotation
											End Site
											{
												OFFSET 0 0 0
											}
										}
									}
								}
							}
						}
						JOINT RightShoulder_virtual
						{
							OFFSET 0.000000 0.000000 0.000000
							CHANNELS 3 Xrotation Yrotation Zrotation
							JOINT RightShoulder
							{
								OFFSET -15.263000 10.923401 -0.547700
								CHANNELS 3 Xrotation Yrotation Zrotation
								JOINT RightArm
								{
									OFFSET -25.438599 -2.830597 -13.032500
									CHANNELS 3 Xrotation Yrotation Zrotation
									JOINT RightForeArm
									{
										OFFSET -29.960503 0.000000 0.000000
										CHANNELS 3 Xrotation Yrotation Zrotation
										JOINT RightHand
										{
											OFFSET -27.849251 0.000000 0.000000
											CHANNELS 3 Xrotation Yrotation Zrotation
											End Site
											{
												OFFSET 0 0 0
											}
										}
									}
								}
							}
						}
					}
				}
			}
		}
	}
}
MOTION
Frames: 7
Frame Time: 0.03333333
1.243742 76.546135 -2.595688 0.000000 0.000000 0.000000 -11.174862 4.566270 1.178025 -39.071698 -3.497716 13.865511 75.197282 -3.105707 1.258285 -25.087918 -1.517879 -14.411964 0.000000 0.000000 0.000000 -11.594401 5.731053 0.789381 -34.798038 -4.605982 -24.684719 74.557614 2.600106 -0.273814 -31.491581 -2.726029 17.174934 0.000000 0.000000 0.000000 -11.563322 5.257740 1.142741 -0.830067 0.666844 -0.434189 24.203305 0.900623 1.305607 13.212114 -0.036333 0.700175 0.000000 0.000000 0.000000 12.543557 0.452143 -0.154078 3.477498 -0.028755 0.036728 0.000000 0.000000 0.000000 13.439182 0.458228 -0.193714 0.736385 -17.443029 -8.245117 -28.590569 -0.176492 -53.659336 -127.767896 -74.183736 -126.638223 0.000000 0.000000 0.000000 12.818768 0.473801 -0.325390 4.437135 4.229899 24.520258 -17.581616 24.417967 38.185983 -129.135982 64.068103 122.368016 0.000000 0.000000 0.000000 
1.066880 77.048325 -2.227234 0.000000 0.000000 0.000000 -11.348447 4.051859 1.205119 -37.500867 -3.519516 13.764729 74.764282 -2.997272 1.349024 -25.647823 -1.377722 -14.708488 0.000000 0.000000 0.000000 -11.627490 5.423210 0.846767 -33.287320 -4.607348 -24.092654 73.428215 2.617557 -0.506357 -31.354465 -2.787237 17.153291 0.000000 0.000000 0.000000 -11.859367 4.858450 1.202426 -1.038538 0.820355 -0.217845 23.776203 1.148433 1.443705 12.939243 -0.174705 0.632071 0.000000 0.000000 0.000000 12.001705 0.224983 -0.119937 3.147263 -0.021073 0.149429 0.000000 0.000000 0.000000 13.031280 0.194801 -0.169508 0.544211 -17.457405 -9.339486 -26.990698 -2.753099 -54.612342 -121.767506 -76.683668 -119.469052 0.000000 0.000000 0.000000 12.455074 0.291933 -0.371547 4.479877 4.624354 25.741805 -12.337997 23.611501 35.098816 -130.207926 63.345176 122.352443 0.000000 0.000000 0.000000 
0.847425 77.705872 -1.826313 0.000000 0.000000 0.000000 -11.685567 3.752903 1.169580 -35.429021 -3.683031 13.610235 73.831886 -2.844377 1.510371 -26.063365 -1.193159 -14.858848 0.000000 0.000000 0.000000 -11.900607 5.281211 0.848455 -31.323336 -4.916173 -23.508111 71.919966 2.654179 -0.606935 -31.198320 -2.932743 17.147748 0.000000 0.000000 0.000000 -12.260819 4.496935 1.152646 -1.226374 0.820794 -0.090070 23.388359 1.251299 1.463294 12.614621 -0.318514 0.604619 0.000000 0.000000 0.000000 11.469797 -0.004986 -0.035242 2.745568 -0.007034 0.283494 0.000000 0.000000 0.000000 12.701612 -0.057269 -0.082469 0.417369 -17.324788 -10.197335 -24.327962 -6.423469 -55.156790 -111.583885 -79.624754 -108.324813 0.000000 0.000000 0.000000 12.081395 0.142853 -0.382897 4.493419 4.935340 26.603862 -7.188720 23.184278 31.733998 -132.076789 63.098531 123.451831 0.000000 0.000000 0.000000 
0.600097 78.431206 -1.363274 0.000000 0.000000 0.000000 -12.117758 3.794297 1.076874 -33.179321 -3.909278 13.471564 72.512990 -2.657096 1.704739 -26.221436 -0.973734 -14.819065 0.000000 0.000000 0.000000 -12.362810 5.406422 0.797405 -29.247997 -5.531921 -22.980875 70.342957 2.677687 -0.555249 -31.085916 -3.133534 17.087887 0.000000 0.000000 0.000000 -12.657227 4.306346 1.012254 -1.353364 0.749077 -0.130890 23.087474 1.197141 1.388018 12.281422 -0.428349 0.611302 0.000000 0.000000 0.000000 10.989000 -0.182759 0.057926 2.290570 0.009157 0.388694 0.000000 0.000000 0.000000 12.404535 -0.246799 0.025831 0.365043 -17.080713 -10.812529 -21.322526 -10.060409 -55.177489 -99.990356 -82.375988 -95.949207 0.000000 0.000000 0.000000 11.742378 0.033393 -0.362172 4.536276 4.819179 27.198580 -3.618075 23.155185 29.971232 -134.156417 63.647316 124.926537 0.000000 0.000000 0.000000 
0.355509 79.149422 -0.862244 0.000000 0.000000 0.000000 -12.575247 4.135046 0.950333 -31.000371 -4.150119 13.372415 70.946794 -2.479572 1.902544 -26.109127 -0.736538 -14.635482 0.000000 0.000000 0.000000 -12.886021 5.783545 0.720161 -27.294425 -6.321563 -22.495349 68.851169 2.657038 -0.400934 -31.029891 -3.348687 16.952791 0.000000 0.000000 0.000000 -13.020518 4.378679 0.816708 -1.330766 0.620632 -0.200872 22.854489 1.037119 1.254562 11.952129 -0.493828 0.636536 0.000000 0.000000 0.000000 10.633555 -0.280731 0.127524 1.807745 0.042336 0.432022 0.000000 0.000000 0.000000 12.078191 -0.336947 0.083144 0.401280 -16.828934 -11.206040 -18.308947 -12.595974 -54.906214 -92.467074 -85.088489 -87.836062 0.000000 0.000000 0.000000 11.452322 -0.017631 -0.337933 4.661245 4.003948 27.653404 -2.039270 23.577996 30.721573 -135.935572 65.325104 126.151845 0.000000 0.000000 0.000000 
0.154776 79.797829 -0.349781 0.000000 0.000000 0.000000 -12.982291 4.570025 0.830731 -29.054122 -4.342792 13.292432 69.350128 -2.337480 2.075367 -25.841529 -0.493400 -14.382323 0.000000 0.000000 0.000000 -13.399031 6.177961 0.632773 -25.565663 -7.093707 -22.039448 67.551568 2.591859 -0.234423 -31.044692 -3.552597 16.779499 0.000000 0.000000 0.000000 -13.353857 4.635554 0.648651 -1.314590 0.539752 -0.253964 22.604847 0.823052 1.115773 11.636705 -0.489036 0.654439 0.000000 0.000000 0.000000 10.370708 -0.286724 0.161530 1.348041 0.079774 0.393960 0.000000 0.000000 0.000000 11.697126 -0.320577 0.063633 0.516903 -16.562213 -11.479102 -15.753937 -13.909094 -54.789407 -87.620194 -88.072885 -82.543041 0.000000 0.000000 0.000000 11.220031 0.011156 -0.316683 4.847313 2.732389 27.945313 -1.897992 24.272428 33.411926 -136.935102 68.201666 126.646816 0.000000 0.000000 0.000000 
-0.017364 80.317726 0.170719 0.000000 0.000000 0.000000 -13.310211 4.871891 0.747418 -27.411281 -4.480535 13.214598 67.883331 -2.254006 2.203272 -25.591722 -0.249098 -14.164304 0.000000 0.000000 0.000000 -13.819766 6.434768 0.586892 -24.012596 -7.650941 -21.566700 66.370628 2.522465 -0.161024 -31.067139 -3.729051 16.632441 0.000000 0.000000 0.000000 -13.672643 4.948174 0.563700 -1.274373 0.513383 -0.246689 22.255398 0.621961 0.991146 11.307018 -0.426516 0.663654 0.000000 0.000000 0.000000 10.160377 -0.226244 0.186346 0.943882 0.109846 0.272220 0.000000 0.000000 0.000000 11.273570 -0.240720 0.013233 0.669558 -16.391366 -11.804891 -14.092655 -13.910633 -55.139738 76.635938 -88.675882 82.022820 0.000000 0.000000 0.000000 10.976220 0.079049 -0.304193 4.986344 1.473836 28.071207 -2.429601 25.041784 36.626555 -136.975892 71.958707 126.296563 0.000000 0.000000 0.000000 
